<?xml version="1.0" standalone="no"?><!DOCTYPE svg PUBLIC "-//W3C//DTD SVG 1.1//EN" "http://www.w3.org/Graphics/SVG/1.1/DTD/svg11.dtd"><svg class="icon" height="512" viewBox="0 0 1024 1024" version="1.1" xmlns="http://www.w3.org/2000/svg"><path d="M512 0C229.6832 0 0 229.6832 0 512c0 282.3424 229.7088 512 512 512 282.368 0 512-229.6576 512-512C1024 229.6832 794.3424 0 512 0z m312.9088 855.9872A463.9232 463.9232 0 0 1 512 977.1008c-115.9424 0-227.0464-43.008-312.8064-121.0624l-5.4016-4.9152 2.5088-6.8352C244.992 712.2432 371.8656 623.5392 512 623.5392c140.2112 0 267.1104 88.6784 315.7504 220.6976l2.56 6.8352-5.4016 4.9152z m41.8816-42.9056l-7.4496-15.872c-62.9504-133.9648-199.296-220.544-347.3664-220.544-147.9424 0-284.2624 86.6816-347.136 220.8l-7.424 15.8976-10.9056-13.7984A466.9184 466.9184 0 0 1 46.8992 512C46.8992 255.5648 255.5392 46.9248 512 46.9248c256.4608 0 465.1008 208.64 465.1008 465.1008 0 103.7312-35.3536 205.7984-99.5072 287.2832l-10.8032 13.7728z" fill="#fff" /><path d="M512 154.0608c-105.6768 0-191.6416 85.9648-191.6416 191.6416 0 105.6512 85.9648 191.616 191.6416 191.616 105.7024 0 191.6672-85.9648 191.6672-191.616-0.0256-105.7024-85.9648-191.6416-191.6672-191.6416z m0 336.3584a144.896 144.896 0 0 1-144.7424-144.7168A144.9216 144.9216 0 0 1 512 200.9344a144.9472 144.9472 0 0 1 144.768 144.768A144.9472 144.9472 0 0 1 512 490.4192z" fill="#fff" /></svg>